<svg xmlns="http://www.w3.org/2000/svg" width="3543" height="1410" viewBox="0 0 3543 1410" version="1.1"><path d="M 326.500 549.260 C 322.838 551.217, 316.980 555.980, 311.467 561.483 C 304.221 568.716, 301.597 572.182, 298.203 579 C 292.787 589.881, 289.990 600.977, 290.033 611.410 L 290.067 619.500 293.367 609.500 C 300.116 589.049, 309.984 572.051, 324.860 555.250 C 329.365 550.163, 332.927 546.012, 332.775 546.027 C 332.624 546.041, 329.800 547.496, 326.500 549.260 M 496 552.688 C 487.002 554.182, 475.741 558.014, 460.738 564.687 C 451.257 568.903, 443.153 572.643, 442.729 572.997 C 442.064 573.553, 484.566 566.079, 490.408 564.612 C 492.633 564.054, 500.532 556.736, 502.132 553.750 C 503.122 551.903, 501.947 551.700, 496 552.688 M 495.753 566.562 L 493.006 568.061 499.123 575.780 C 512.151 592.224, 533.591 626.781, 540.607 642.646 C 544.260 650.906, 544.159 648.997, 540.400 638.750 C 532.821 618.087, 511.759 580.088, 501.340 568.282 C 498.610 565.188, 498.394 565.121, 495.753 566.562" stroke="none" fill="#f3f3f3" fill-rule="evenodd"/><path d="M 465.886 450.338 C 430.834 468.354, 404.877 493.633, 388.851 525.361 C 377.838 547.164, 373.503 566.096, 374.277 589 C 374.814 604.904, 376.547 613.247, 382.070 626.515 C 392.186 650.813, 417.218 676.032, 445.175 690.088 C 452.845 693.944, 453.116 694, 464.228 694.005 L 475.500 694.010 506.858 733.437 L 538.217 772.864 544.447 773.531 C 554.305 774.587, 565.838 770.910, 573.588 764.239 C 574.736 763.250, 577.324 760.283, 579.338 757.644 C 583.640 752.008, 583.777 750.362, 581.437 732.458 C 572.203 661.829, 546.739 595.199, 507.210 538.233 C 500.215 528.152, 493.353 519.159, 479.727 502.211 C 478.963 501.261, 480.217 498.698, 484.509 492.444 L 490.328 483.966 484.414 464.492 C 481.161 453.781, 477.999 445.014, 477.386 445.009 C 476.773 445.004, 471.598 447.402, 465.886 450.338 M 375.500 474.028 C 323.157 479.955, 279.170 508.379, 254.078 552.488 C 242.451 572.928, 234.016 602.767, 234.004 623.500 L 234 630.500 308.871 681.892 L 383.743 733.283 406.320 765.958 C 427.702 796.903, 428.950 798.962, 429.900 804.861 C 432.009 817.953, 429.900 816.614, 415.946 796 C 401.966 775.347, 394.809 766.715, 376.051 747.882 C 357.785 729.543, 344.856 718.836, 326 706.431 C 303.945 691.922, 291.651 685.643, 262.500 673.999 C 205.590 651.267, 165.060 624.470, 123.947 582.394 C 111.021 569.164, 90.925 545.466, 88.003 540.006 C 87.413 538.903, 86.565 538, 86.119 538 C 85.263 538, 82.072 548.426, 79.846 558.500 C 79.019 562.238, 78.535 570.909, 78.560 581.500 C 78.595 595.857, 78.965 599.977, 80.941 608 C 86.838 631.942, 97.704 651.677, 113.994 668.031 C 123.771 677.847, 129.663 681.881, 152.049 694.090 C 213.096 727.384, 260.013 756.081, 314.071 793.190 L 338.643 810.058 342.871 817.618 C 349.747 829.913, 352.749 839, 349.934 839 C 348.146 839, 344.783 836.935, 338.500 831.979 C 331.724 826.634, 123.039 704.628, 122.166 705.501 C 121.242 706.424, 124.995 722.826, 128.224 731.980 C 134.848 750.757, 144.630 766.435, 159.084 781.441 C 164.437 786.999, 172.403 794.129, 176.786 797.285 C 185.793 803.770, 200.561 811.791, 209.500 815.055 C 212.800 816.259, 239.904 829.669, 269.731 844.853 L 323.963 872.461 337.010 887.548 C 351.429 904.223, 352.419 905.501, 353.433 908.750 C 355.132 914.197, 346.569 910.273, 323 894.805 C 293.468 875.424, 262.978 858.040, 236 845.202 C 209.771 832.720, 169.461 816.205, 168.230 817.436 C 167.471 818.196, 172.427 830.736, 177.561 841.047 C 185.123 856.236, 193.470 867.657, 206.409 880.521 C 220.943 894.970, 228.378 900.061, 257.500 915.504 C 282.428 928.723, 305.140 943.444, 322 957.311 C 328.325 962.514, 350.125 981.672, 370.445 999.885 C 390.765 1018.098, 407.729 1033, 408.144 1033 C 409.808 1033, 429.854 1016.186, 440.717 1005.679 C 471.499 975.905, 497.652 936.721, 513.368 896.826 C 522.723 873.080, 525.525 857.059, 524.699 832.036 C 523.965 809.788, 520.062 793.152, 510.894 773.196 C 503.630 757.384, 501.382 754.611, 479.201 734.114 C 458.812 715.273, 458.050 714.689, 449.884 711.616 C 419.643 700.236, 393.146 676.774, 378.149 648.098 C 365.913 624.700, 360.441 597.314, 362.942 572 C 366.293 538.089, 380.861 507.821, 405.639 483.288 C 410.201 478.772, 413.547 474.838, 413.076 474.547 C 411.414 473.520, 383.400 473.133, 375.500 474.028 M 726.500 507.350 C 715.927 510.840, 708.935 516.489, 704.869 524.828 C 703.015 528.628, 702.588 531.181, 702.579 538.500 C 702.570 546.320, 702.919 548.173, 705.242 552.632 C 709.607 561.015, 716.292 565.361, 733.500 571.001 C 751.794 576.998, 758.085 581.508, 759.889 589.919 C 761.668 598.211, 759.064 604.768, 751.945 609.925 C 741.004 617.850, 723.212 615.728, 714.134 605.414 L 710.342 601.107 705.421 604.599 C 702.715 606.520, 700.375 608.445, 700.223 608.877 C 699.672 610.439, 704.489 615.359, 710.154 619.021 C 718.294 624.282, 726.529 626.313, 737.591 625.788 C 748.711 625.260, 756.091 622.522, 762.901 616.399 C 775.683 604.907, 777.575 585.089, 766.988 573.603 C 761.943 568.130, 756.357 565.150, 740.961 559.721 C 722.576 553.237, 717.865 549.767, 715.957 541.307 C 712.829 527.442, 725.483 515.769, 742.016 517.268 C 748.706 517.874, 753.154 519.931, 758.174 524.739 L 761.849 528.258 766.674 524.414 C 769.328 522.300, 771.725 520.397, 772 520.185 C 773.072 519.360, 763.210 511.575, 758 509.133 C 753.302 506.931, 750.896 506.517, 741.500 506.293 C 734.394 506.123, 729.084 506.497, 726.500 507.350 M 1309.345 507.904 C 1299.218 510.802, 1291.996 515.025, 1284.384 522.500 C 1272.485 534.186, 1267.044 547.719, 1267.015 565.701 C 1266.996 577.701, 1268.302 583.655, 1273.225 594 C 1280.452 609.186, 1293.974 620.115, 1311 624.531 C 1316.089 625.851, 1320.213 626.105, 1330 625.700 C 1343.539 625.141, 1352.341 623.132, 1363.576 618.038 L 1370 615.125 1370 586.563 L 1370 558 1350 558 L 1330 558 1330 563.500 L 1330 569 1344.022 569 L 1358.043 569 1357.772 588.225 L 1357.500 607.451 1350.029 610.319 C 1328.806 618.468, 1307.760 615.311, 1294.346 601.965 C 1271.225 578.962, 1277.092 535.860, 1305.220 522.077 C 1321.245 514.226, 1341.097 515.895, 1354.121 526.190 L 1359.239 530.235 1363.752 525.722 L 1368.265 521.209 1364.883 518.102 C 1360.551 514.124, 1351.155 509.466, 1343.540 507.522 C 1335.281 505.413, 1317.348 505.614, 1309.345 507.904 M 1557.500 507.350 C 1546.927 510.840, 1539.935 516.489, 1535.869 524.828 C 1534.015 528.628, 1533.588 531.181, 1533.579 538.500 C 1533.570 546.320, 1533.919 548.173, 1536.242 552.632 C 1540.607 561.015, 1547.292 565.361, 1564.500 571.001 C 1582.794 576.998, 1589.085 581.508, 1590.889 589.919 C 1592.668 598.211, 1590.064 604.768, 1582.945 609.925 C 1572.004 617.850, 1554.212 615.728, 1545.134 605.414 L 1541.342 601.107 1536.421 604.599 C 1533.715 606.520, 1531.375 608.445, 1531.223 608.877 C 1530.672 610.439, 1535.489 615.359, 1541.154 619.021 C 1549.294 624.282, 1557.529 626.313, 1568.591 625.788 C 1579.711 625.260, 1587.091 622.522, 1593.901 616.399 C 1606.683 604.907, 1608.575 585.089, 1597.988 573.603 C 1592.943 568.130, 1587.357 565.150, 1571.961 559.721 C 1553.576 553.237, 1548.865 549.767, 1546.957 541.307 C 1543.829 527.442, 1556.483 515.769, 1573.016 517.268 C 1579.706 517.874, 1584.154 519.931, 1589.174 524.739 L 1592.849 528.258 1597.674 524.414 C 1600.328 522.300, 1602.725 520.397, 1603 520.185 C 1604.072 519.360, 1594.210 511.575, 1589 509.133 C 1584.302 506.931, 1581.896 506.517, 1572.500 506.293 C 1565.394 506.123, 1560.084 506.497, 1557.500 507.350 M 1894.345 507.904 C 1884.218 510.802, 1876.996 515.025, 1869.384 522.500 C 1857.485 534.186, 1852.044 547.719, 1852.015 565.701 C 1851.996 577.701, 1853.302 583.655, 1858.225 594 C 1865.452 609.186, 1878.974 620.115, 1896 624.531 C 1901.089 625.851, 1905.213 626.105, 1915 625.700 C 1928.539 625.141, 1937.341 623.132, 1948.576 618.038 L 1955 615.125 1955 586.563 L 1955 558 1935 558 L 1915 558 1915 563.500 L 1915 569 1929.022 569 L 1943.043 569 1942.772 588.225 L 1942.500 607.451 1935.029 610.319 C 1913.806 618.468, 1892.760 615.311, 1879.346 601.965 C 1856.225 578.962, 1862.092 535.860, 1890.220 522.077 C 1906.245 514.226, 1926.097 515.895, 1939.121 526.190 L 1944.239 530.235 1948.752 525.722 L 1953.265 521.209 1949.883 518.102 C 1945.551 514.124, 1936.155 509.466, 1928.540 507.522 C 1920.281 505.413, 1902.348 505.614, 1894.345 507.904 M 2351.345 507.904 C 2341.154 510.820, 2334.001 515.015, 2326.456 522.500 C 2314.350 534.510, 2309.030 547.790, 2309.030 566 C 2309.030 584.201, 2314.348 597.482, 2326.450 609.503 C 2337.981 620.957, 2350.836 626, 2368.500 626 C 2386.164 626, 2399.019 620.957, 2410.550 609.503 C 2422.652 597.482, 2427.970 584.201, 2427.970 566 C 2427.970 547.799, 2422.652 534.518, 2410.550 522.497 C 2402.863 514.861, 2394.768 510.251, 2384.356 507.577 C 2376.010 505.435, 2359.399 505.599, 2351.345 507.904 M 2640.500 507.350 C 2629.927 510.840, 2622.935 516.489, 2618.869 524.828 C 2617.015 528.628, 2616.588 531.181, 2616.579 538.500 C 2616.570 546.320, 2616.919 548.173, 2619.242 552.632 C 2623.607 561.015, 2630.292 565.361, 2647.500 571.001 C 2665.794 576.998, 2672.085 581.508, 2673.889 589.919 C 2675.668 598.211, 2673.064 604.768, 2665.945 609.925 C 2655.004 617.850, 2637.212 615.728, 2628.134 605.414 L 2624.342 601.107 2619.421 604.599 C 2616.715 606.520, 2614.375 608.445, 2614.223 608.877 C 2613.672 610.439, 2618.489 615.359, 2624.154 619.021 C 2632.294 624.282, 2640.529 626.313, 2651.591 625.788 C 2662.711 625.260, 2670.091 622.522, 2676.901 616.399 C 2689.683 604.907, 2691.575 585.089, 2680.988 573.603 C 2675.943 568.130, 2670.357 565.150, 2654.961 559.721 C 2636.576 553.237, 2631.865 549.767, 2629.957 541.307 C 2626.829 527.442, 2639.483 515.769, 2656.016 517.268 C 2662.706 517.874, 2667.154 519.931, 2672.174 524.739 L 2675.849 528.258 2680.674 524.414 C 2683.328 522.300, 2685.725 520.397, 2686 520.185 C 2687.072 519.360, 2677.210 511.575, 2672 509.133 C 2667.302 506.931, 2664.896 506.517, 2655.500 506.293 C 2648.394 506.123, 2643.084 506.497, 2640.500 507.350 M 3080.345 507.904 C 3070.154 510.820, 3063.001 515.015, 3055.456 522.500 C 3043.350 534.510, 3038.030 547.790, 3038.030 566 C 3038.030 584.201, 3043.348 597.482, 3055.450 609.503 C 3066.902 620.878, 3079.882 626.010, 3097.144 625.988 C 3112.825 625.968, 3124.342 621.629, 3134.226 612.017 C 3137.402 608.929, 3139.996 605.974, 3139.990 605.451 C 3139.985 604.928, 3137.847 603.025, 3135.241 601.222 L 3130.501 597.945 3126.501 602.393 C 3121.245 608.237, 3115.845 611.564, 3108.540 613.456 C 3093.056 617.467, 3076.249 612.963, 3065.100 601.814 C 3042.893 579.607, 3047.794 538.174, 3074.431 522.934 C 3081.329 518.987, 3092.582 516.572, 3100.379 517.364 C 3108.050 518.144, 3119.599 523.640, 3123.929 528.571 L 3127.054 532.131 3132.027 528.480 C 3134.762 526.472, 3137 524.435, 3137 523.952 C 3137 522.197, 3128.608 515.070, 3123.123 512.167 C 3120.030 510.530, 3115.056 508.473, 3112.068 507.595 C 3104.682 505.426, 3088.453 505.583, 3080.345 507.904 M 3274.500 507.350 C 3263.927 510.840, 3256.935 516.489, 3252.869 524.828 C 3251.015 528.628, 3250.588 531.181, 3250.579 538.500 C 3250.570 546.320, 3250.919 548.173, 3253.242 552.632 C 3257.607 561.015, 3264.292 565.361, 3281.500 571.001 C 3299.794 576.998, 3306.085 581.508, 3307.889 589.919 C 3309.668 598.211, 3307.064 604.768, 3299.945 609.925 C 3289.004 617.850, 3271.212 615.728, 3262.134 605.414 L 3258.342 601.107 3253.421 604.599 C 3250.715 606.520, 3248.375 608.445, 3248.223 608.877 C 3247.672 610.439, 3252.489 615.359, 3258.154 619.021 C 3266.294 624.282, 3274.529 626.313, 3285.591 625.788 C 3296.711 625.260, 3304.091 622.522, 3310.901 616.399 C 3323.683 604.907, 3325.575 585.089, 3314.988 573.603 C 3309.943 568.130, 3304.357 565.150, 3288.961 559.721 C 3270.576 553.237, 3265.865 549.767, 3263.957 541.307 C 3260.829 527.442, 3273.483 515.769, 3290.016 517.268 C 3296.706 517.874, 3301.154 519.931, 3306.174 524.739 L 3309.849 528.258 3314.674 524.414 C 3317.328 522.300, 3319.725 520.397, 3320 520.185 C 3321.072 519.360, 3311.210 511.575, 3306 509.133 C 3301.302 506.931, 3298.896 506.517, 3289.500 506.293 C 3282.394 506.123, 3277.084 506.497, 3274.500 507.350 M 784 514.500 L 784 520 803 520 L 822 520 822 571.500 L 822 623 828 623 L 834 623 834 571.500 L 834 520 853.500 520 L 873 520 873 514.500 L 873 509 828.500 509 L 784 509 784 514.500 M 890 565.924 L 890 623 896 623 L 902 623 902 596.464 L 902 569.928 911.638 570.214 L 921.276 570.500 936.888 596.724 L 952.500 622.948 959.750 622.974 C 963.737 622.988, 966.987 622.663, 966.971 622.250 C 966.955 621.837, 959.790 609.806, 951.048 595.513 L 935.153 569.526 940.827 567.947 C 948.703 565.756, 951.952 563.860, 956.752 558.654 C 963.876 550.925, 965.991 537.095, 961.642 526.685 C 959.294 521.066, 953.506 515.507, 946.762 512.392 L 940.500 509.500 915.250 509.174 L 890 508.848 890 565.924 M 996.204 564.250 C 982.957 594.638, 971.811 620.308, 971.435 621.296 C 970.809 622.938, 971.376 623.067, 978.035 622.796 L 985.320 622.500 991.410 607.757 L 997.500 593.013 1026.416 593.257 L 1055.332 593.500 1061.463 608 L 1067.594 622.500 1074.896 622.796 C 1079.207 622.970, 1082.054 622.703, 1081.849 622.143 C 1081.657 621.621, 1070.482 595.950, 1057.015 565.097 L 1032.530 509 1026.410 509 L 1020.289 509 996.204 564.250 M 1073 514.500 L 1073 520 1092 520 L 1111 520 1111 571.500 L 1111 623 1117 623 L 1123 623 1123 571.500 L 1123 520 1142.500 520 L 1162 520 1162 514.500 L 1162 509 1117.500 509 L 1073 509 1073 514.500 M 1178 566 L 1178 623 1215 623 L 1252 623 1252 617.500 L 1252 612 1221 612 L 1190 612 1190 590.500 L 1190 569 1218 569 L 1246 569 1246 563.500 L 1246 558 1218 558 L 1190 558 1190 539 L 1190 520 1220 520 L 1250 520 1250 514.500 L 1250 509 1214 509 L 1178 509 1178 566 M 1400 566 L 1400 623 1406 623 L 1412 623 1412 566 L 1412 509 1406 509 L 1400 509 1400 566 M 1442 566 L 1442 623 1479 623 L 1516 623 1516 617.500 L 1516 612 1485 612 L 1454 612 1454 590.500 L 1454 569 1482 569 L 1510 569 1510 563.500 L 1510 558 1482 558 L 1454 558 1454 539 L 1454 520 1484 520 L 1514 520 1514 514.500 L 1514 509 1478 509 L 1442 509 1442 566 M 1673 566 L 1673 623 1678.990 623 L 1684.981 623 1685.240 574.563 L 1685.500 526.127 1705.697 574.313 L 1725.893 622.500 1729.630 622.500 L 1733.367 622.500 1753.433 574.585 L 1773.500 526.671 1773.760 574.835 L 1774.019 623 1780.010 623 L 1786 623 1786 566 L 1786 509 1776.750 509.031 L 1767.500 509.063 1749.072 553.781 C 1738.936 578.377, 1730.357 598.845, 1730.006 599.266 C 1729.655 599.688, 1720.858 579.550, 1710.457 554.516 L 1691.547 509 1682.274 509 L 1673 509 1673 566 M 1817 566 L 1817 623 1823 623 L 1829 623 1829 566 L 1829 509 1823 509 L 1817 509 1817 566 M 1985 565.924 L 1985 623 1991 623 L 1997 623 1997 596.464 L 1997 569.928 2006.638 570.214 L 2016.276 570.500 2031.888 596.724 L 2047.500 622.948 2054.750 622.974 C 2058.738 622.988, 2061.987 622.663, 2061.971 622.250 C 2061.955 621.837, 2054.790 609.806, 2046.048 595.513 L 2030.153 569.526 2035.827 567.947 C 2043.703 565.756, 2046.952 563.860, 2051.752 558.654 C 2058.876 550.925, 2060.991 537.095, 2056.642 526.685 C 2054.294 521.066, 2048.506 515.507, 2041.762 512.392 L 2035.500 509.500 2010.250 509.174 L 1985 508.848 1985 565.924 M 2091.204 564.250 C 2077.957 594.638, 2066.811 620.308, 2066.435 621.296 C 2065.809 622.938, 2066.376 623.067, 2073.035 622.796 L 2080.320 622.500 2086.410 607.757 L 2092.500 593.013 2121.416 593.257 L 2150.332 593.500 2156.463 608 L 2162.594 622.500 2169.896 622.796 C 2174.207 622.970, 2177.054 622.703, 2176.849 622.143 C 2176.657 621.621, 2165.482 595.950, 2152.015 565.097 L 2127.530 509 2121.410 509 L 2115.289 509 2091.204 564.250 M 2168 514.500 L 2168 520 2187 520 L 2206 520 2206 571.500 L 2206 623 2212 623 L 2218 623 2218 571.500 L 2218 520 2237.500 520 L 2257 520 2257 514.500 L 2257 509 2212.500 509 L 2168 509 2168 514.500 M 2273 566 L 2273 623 2279 623 L 2285 623 2285 566 L 2285 509 2279 509 L 2273 509 2273 566 M 2451 566 L 2451 623 2456.990 623 L 2462.981 623 2463.240 574.770 L 2463.500 526.540 2497.005 574.520 L 2530.510 622.500 2538.255 622.792 L 2546 623.084 2546 566.042 L 2546 509 2540.010 509 L 2534.019 509 2533.760 556.578 L 2533.500 604.156 2500 556.596 L 2466.500 509.036 2458.750 509.018 L 2451 509 2451 566 M 2711 566 L 2711 623 2748 623 L 2785 623 2785 617.500 L 2785 612 2754 612 L 2723 612 2723 590.500 L 2723 569 2751 569 L 2779 569 2779 563.500 L 2779 558 2751 558 L 2723 558 2723 539 L 2723 520 2753 520 L 2783 520 2783 514.500 L 2783 509 2747 509 L 2711 509 2711 566 M 2807 565.924 L 2807 623 2813 623 L 2819 623 2819 596.464 L 2819 569.928 2828.638 570.214 L 2838.276 570.500 2853.888 596.724 L 2869.500 622.948 2876.750 622.974 C 2880.738 622.988, 2883.987 622.663, 2883.971 622.250 C 2883.955 621.837, 2876.790 609.806, 2868.048 595.513 L 2852.153 569.526 2857.827 567.947 C 2865.703 565.756, 2868.952 563.860, 2873.752 558.654 C 2880.876 550.925, 2882.991 537.095, 2878.642 526.685 C 2876.294 521.066, 2870.506 515.507, 2863.762 512.392 L 2857.500 509.500 2832.250 509.174 L 2807 508.848 2807 565.924 M 2888.461 510.750 C 2888.833 511.712, 2898.623 537.362, 2910.217 567.750 L 2931.298 623 2937.540 623 L 2943.783 623 2945.488 618.750 C 2951.257 604.369, 2988 509.909, 2988 509.458 C 2988 509.156, 2985.012 509.042, 2981.360 509.204 L 2974.720 509.500 2956.609 556.167 C 2946.649 581.834, 2938.245 603.089, 2937.935 603.399 C 2937.624 603.709, 2929.342 582.596, 2919.530 556.482 L 2901.689 509 2894.738 509 C 2888.526 509, 2887.858 509.186, 2888.461 510.750 M 3002 566 L 3002 623 3008 623 L 3014 623 3014 566 L 3014 509 3008 509 L 3002 509 3002 566 M 3159 566 L 3159 623 3196 623 L 3233 623 3233 617.500 L 3233 612 3202 612 L 3171 612 3171 590.500 L 3171 569 3199 569 L 3227 569 3227 563.500 L 3227 558 3199 558 L 3171 558 3171 539 L 3171 520 3201 520 L 3231 520 3231 514.500 L 3231 509 3195 509 L 3159 509 3159 566 M 2356 518.814 C 2335.600 524.146, 2322.030 542.997, 2322.030 566 C 2322.030 598.645, 2348.988 620.748, 2379.913 613.459 C 2400.866 608.520, 2414.970 589.426, 2414.970 566 C 2414.970 532.929, 2387.153 510.671, 2356 518.814 M 902 539.515 L 902 559.239 917.750 558.756 C 938.384 558.123, 944.351 555.960, 948.738 547.523 C 950.750 543.655, 950.719 535.291, 948.679 531.346 C 946.563 527.254, 941.831 523.358, 937.219 521.909 C 935.174 521.266, 926.413 520.527, 917.750 520.265 L 902 519.790 902 539.515 M 1997 539.515 L 1997 559.239 2012.750 558.756 C 2033.384 558.123, 2039.351 555.960, 2043.738 547.523 C 2045.750 543.655, 2045.719 535.291, 2043.679 531.346 C 2041.563 527.254, 2036.831 523.358, 2032.219 521.909 C 2030.174 521.266, 2021.412 520.527, 2012.750 520.265 L 1997 519.790 1997 539.515 M 2819 539.515 L 2819 559.239 2834.750 558.756 C 2855.384 558.123, 2861.351 555.960, 2865.738 547.523 C 2867.750 543.655, 2867.719 535.291, 2865.679 531.346 C 2863.563 527.254, 2858.831 523.358, 2854.219 521.909 C 2852.174 521.266, 2843.412 520.527, 2834.750 520.265 L 2819 519.790 2819 539.515 M 1014.323 552.717 L 1002.379 581.500 1025.838 581.768 C 1038.740 581.916, 1049.491 581.842, 1049.729 581.604 C 1050.082 581.251, 1027.406 525.154, 1026.532 524.217 C 1026.387 524.062, 1020.893 536.887, 1014.323 552.717 M 2109.323 552.717 L 2097.379 581.500 2120.838 581.768 C 2133.740 581.916, 2144.491 581.842, 2144.729 581.604 C 2145.082 581.251, 2122.406 525.154, 2121.532 524.217 C 2121.387 524.062, 2115.893 536.887, 2109.323 552.717 M 326.500 549.260 C 322.838 551.217, 316.980 555.980, 311.467 561.483 C 304.221 568.716, 301.597 572.182, 298.203 579 C 292.787 589.881, 289.990 600.977, 290.033 611.410 L 290.067 619.500 293.367 609.500 C 300.116 589.049, 309.984 572.051, 324.860 555.250 C 329.365 550.163, 332.927 546.012, 332.775 546.027 C 332.624 546.041, 329.800 547.496, 326.500 549.260 M 496 552.688 C 487.002 554.182, 475.741 558.014, 460.738 564.687 C 451.257 568.903, 443.153 572.643, 442.729 572.997 C 442.064 573.553, 484.566 566.079, 490.408 564.612 C 492.633 564.054, 500.532 556.736, 502.132 553.750 C 503.122 551.903, 501.947 551.700, 496 552.688 M 495.753 566.562 L 493.006 568.061 499.123 575.780 C 512.151 592.224, 533.591 626.781, 540.607 642.646 C 544.260 650.906, 544.159 648.997, 540.400 638.750 C 532.821 618.087, 511.759 580.088, 501.340 568.282 C 498.610 565.188, 498.394 565.121, 495.753 566.562 M 679 718.500 L 679 725 2081 725 L 3483 725 3483 718.500 L 3483 712 2081 712 L 679 712 679 718.500 M 726.500 839.350 C 715.927 842.840, 708.935 848.489, 704.869 856.828 C 703.015 860.628, 702.588 863.181, 702.579 870.500 C 702.570 878.320, 702.919 880.173, 705.242 884.632 C 709.607 893.015, 716.292 897.361, 733.500 903.001 C 751.794 908.998, 758.085 913.508, 759.889 921.919 C 761.668 930.211, 759.064 936.768, 751.945 941.925 C 741.004 949.850, 723.212 947.728, 714.134 937.414 L 710.342 933.107 705.421 936.599 C 702.715 938.520, 700.375 940.445, 700.223 940.877 C 699.672 942.439, 704.489 947.359, 710.154 951.021 C 718.294 956.282, 726.529 958.313, 737.591 957.788 C 748.711 957.260, 756.091 954.522, 762.901 948.399 C 775.683 936.907, 777.575 917.089, 766.988 905.603 C 761.943 900.130, 756.357 897.150, 740.961 891.721 C 722.576 885.237, 717.865 881.767, 715.957 873.307 C 712.829 859.442, 725.483 847.769, 742.016 849.268 C 748.706 849.874, 753.154 851.931, 758.174 856.739 L 761.849 860.258 766.674 856.414 C 769.328 854.300, 771.725 852.397, 772 852.185 C 773.072 851.360, 763.210 843.575, 758 841.133 C 753.302 838.931, 750.896 838.517, 741.500 838.293 C 734.394 838.123, 729.084 838.497, 726.500 839.350 M 1392 898 L 1392 955 1397.990 955 L 1403.981 955 1404.240 906.563 L 1404.500 858.127 1424.697 906.313 L 1444.893 954.500 1448.630 954.500 L 1452.367 954.500 1472.433 906.585 L 1492.500 858.671 1492.760 906.835 L 1493.019 955 1499.010 955 L 1505 955 1505 898 L 1505 841 1495.750 841.031 L 1486.500 841.063 1468.072 885.781 C 1457.936 910.377, 1449.357 930.845, 1449.006 931.266 C 1448.655 931.688, 1439.858 911.550, 1429.457 886.516 L 1410.547 841 1401.274 841 L 1392 841 1392 898 M 2134 897.922 L 2134 955 2140 955 L 2146 955 2146 928.595 L 2146 902.191 2164.250 901.828 C 2181.858 901.479, 2182.720 901.365, 2188.762 898.591 C 2195.536 895.481, 2200.955 890.269, 2203.649 884.272 C 2205.947 879.158, 2206.036 863.937, 2203.799 858.860 C 2201.210 852.987, 2195.521 847.513, 2188.762 844.392 L 2182.500 841.500 2158.250 841.172 L 2134 840.844 2134 897.922 M 1228.923 844.923 C 1227.179 846.668, 1226 848.903, 1226 850.469 C 1226 854.235, 1230.139 858, 1234.280 858 C 1241.307 858, 1244.606 849.515, 1239.545 844.455 C 1236.243 841.152, 1232.530 841.316, 1228.923 844.923 M 1534.923 844.923 C 1533.179 846.668, 1532 848.903, 1532 850.469 C 1532 854.235, 1536.139 858, 1540.280 858 C 1547.307 858, 1550.606 849.515, 1545.545 844.455 C 1542.243 841.152, 1538.530 841.316, 1534.923 844.923 M 1862.923 844.923 C 1861.179 846.668, 1860 848.903, 1860 850.469 C 1860 854.235, 1864.139 858, 1868.280 858 C 1875.307 858, 1878.606 849.515, 1873.545 844.455 C 1870.243 841.152, 1866.530 841.316, 1862.923 844.923 M 2146 871.515 L 2146 891.248 2160.750 890.753 C 2180.322 890.096, 2186.429 887.809, 2190.738 879.523 C 2192.750 875.655, 2192.719 867.291, 2190.679 863.346 C 2188.561 859.250, 2183.828 855.355, 2179.219 853.915 C 2177.174 853.276, 2168.863 852.534, 2160.750 852.267 L 2146 851.782 2146 871.515 M 800 868 L 800 879 792 879 L 784 879 784 884 L 784 889 791.943 889 L 799.886 889 800.193 917.250 C 800.494 944.904, 800.550 945.580, 802.851 949.281 C 806.158 954.600, 811.363 957, 819.594 957 C 823.265 957, 828.008 956.479, 830.134 955.842 C 833.544 954.820, 833.998 954.319, 833.986 951.592 C 833.979 949.891, 833.711 947.523, 833.390 946.328 C 832.831 944.243, 832.647 944.213, 828.778 945.578 C 821.290 948.220, 815.307 946.926, 812.885 942.140 C 811.906 940.206, 811.455 932.743, 811.198 914.250 L 810.848 889 821.924 889 L 833 889 833 884 L 833 879 822 879 L 811 879 811 868 L 811 857 805.500 857 L 800 857 800 868 M 991 868 L 991 879 983 879 L 975 879 975 884 L 975 889 982.943 889 L 990.886 889 991.193 917.250 C 991.494 944.904, 991.550 945.580, 993.851 949.281 C 997.158 954.600, 1002.363 957, 1010.594 957 C 1014.265 957, 1019.008 956.479, 1021.134 955.842 C 1024.544 954.820, 1024.998 954.319, 1024.986 951.592 C 1024.979 949.891, 1024.711 947.523, 1024.390 946.328 C 1023.831 944.243, 1023.647 944.213, 1019.778 945.578 C 1012.290 948.220, 1006.307 946.926, 1003.885 942.140 C 1002.906 940.206, 1002.455 932.743, 1002.198 914.250 L 1001.848 889 1012.924 889 L 1024 889 1024 884 L 1024 879 1013 879 L 1002 879 1002 868 L 1002 857 996.500 857 L 991 857 991 868 M 1814 868 L 1814 879 1806 879 L 1798 879 1798 884 L 1798 889 1805.943 889 L 1813.886 889 1814.193 917.250 C 1814.494 944.904, 1814.550 945.580, 1816.851 949.281 C 1820.158 954.600, 1825.363 957, 1833.594 957 C 1837.265 957, 1842.008 956.479, 1844.134 955.842 C 1847.544 954.820, 1847.998 954.319, 1847.986 951.592 C 1847.979 949.891, 1847.711 947.523, 1847.390 946.328 C 1846.831 944.243, 1846.647 944.213, 1842.778 945.578 C 1835.290 948.220, 1829.307 946.926, 1826.885 942.140 C 1825.906 940.206, 1825.455 932.743, 1825.198 914.250 L 1824.848 889 1835.924 889 L 1847 889 1847 884 L 1847 879 1836 879 L 1825 879 1825 868 L 1825 857 1819.500 857 L 1814 857 1814 868 M 2367 868 L 2367 879 2359.059 879 C 2354.691 879, 2350.840 878.550, 2350.500 878 C 2350.160 877.450, 2346.614 877, 2342.620 877 C 2333.437 877, 2326.119 880.367, 2321.257 886.828 L 2318 891.155 2318 885.078 L 2318 879 2312.346 879 L 2306.691 879 2307.342 891.750 C 2307.699 898.763, 2307.994 915.862, 2307.996 929.750 L 2308 955 2313.437 955 L 2318.873 955 2319.187 930.250 L 2319.500 905.500 2322.606 900 C 2327.107 892.030, 2333.082 888.506, 2342.103 888.503 L 2348.872 888.500 2349.818 884 L 2350.764 879.500 2350.882 884.250 L 2351 889 2358.943 889 L 2366.886 889 2367.193 917.250 C 2367.494 944.904, 2367.550 945.580, 2369.851 949.281 C 2373.158 954.600, 2378.363 957, 2386.594 957 C 2390.265 957, 2395.008 956.479, 2397.134 955.842 C 2400.544 954.820, 2400.998 954.319, 2400.986 951.592 C 2400.979 949.891, 2400.711 947.523, 2400.390 946.328 C 2399.831 944.243, 2399.647 944.213, 2395.778 945.578 C 2388.290 948.220, 2382.307 946.926, 2379.885 942.140 C 2378.906 940.206, 2378.455 932.743, 2378.198 914.250 L 2377.848 889 2388.924 889 L 2400 889 2400 884 L 2400 879 2389 879 L 2378 879 2378 868 L 2378 857 2372.500 857 L 2367 857 2367 868 M 870.936 879.750 C 867.632 881.426, 864.242 884.190, 862.257 886.828 L 859 891.155 859 885.078 L 859 879 853.346 879 L 847.691 879 848.342 891.750 C 848.699 898.763, 848.994 915.862, 848.996 929.750 L 849 955 854.437 955 L 859.873 955 860.187 930.250 L 860.500 905.500 863.606 900 C 868.103 892.037, 874.084 888.506, 883.083 888.503 L 889.831 888.500 890.821 883.501 C 891.365 880.752, 891.602 878.164, 891.346 877.751 C 891.091 877.338, 887.614 877, 883.620 877 C 877.680 877, 875.372 877.500, 870.936 879.750 M 917 878.378 C 911.931 879.848, 905.725 882.963, 902.005 885.905 L 899.509 887.879 902.497 891.189 C 904.140 893.010, 905.754 894.856, 906.082 895.290 C 906.411 895.725, 908.999 894.520, 911.833 892.612 C 920.547 886.748, 933.795 885.433, 941.115 889.705 C 944.791 891.851, 947.491 896.812, 948.408 903.105 L 949.079 907.709 936.289 908.301 C 918.050 909.145, 908.503 912.247, 902.261 919.355 C 898.147 924.042, 896.700 928.950, 897.186 936.578 C 897.703 944.703, 901.316 950.257, 908.482 953.945 C 912.834 956.185, 914.683 956.500, 923.473 956.500 C 935.020 956.500, 938.988 955.075, 945.163 948.713 L 948.911 944.850 949.584 949.925 L 950.258 955 955.479 955 L 960.700 955 960.334 932.750 C 959.749 897.197, 959.587 894.964, 957.264 890.500 C 954.831 885.823, 950.906 881.959, 946 879.410 C 941.514 877.080, 923.669 876.445, 917 878.378 M 1061.254 878.460 C 1051.136 881.621, 1043.310 888.830, 1038.234 899.664 C 1035.752 904.962, 1035.500 906.561, 1035.500 917 C 1035.500 927.853, 1035.679 928.878, 1038.686 935.225 C 1042.507 943.291, 1048.914 949.829, 1056.783 953.693 C 1062.041 956.275, 1063.422 956.500, 1074 956.500 C 1084.532 956.500, 1085.973 956.268, 1091.121 953.739 C 1097.355 950.678, 1106 943.566, 1106 941.499 C 1106 940.767, 1104.168 938.717, 1101.928 936.943 L 1097.857 933.718 1095.034 937.143 C 1091.315 941.654, 1083.706 945.705, 1077.372 946.545 C 1063.699 948.359, 1050.156 938.010, 1047.471 923.695 L 1046.777 920 1078.014 920 L 1109.251 920 1108.807 911.750 C 1107.981 896.396, 1099.459 883.934, 1086.459 879.071 C 1079.985 876.648, 1067.984 876.358, 1061.254 878.460 M 1150.863 878.512 C 1139.776 882.057, 1130.423 891.724, 1126.859 903.321 C 1123.928 912.855, 1124.529 925.174, 1128.311 933.075 C 1131.942 940.661, 1139.094 947.668, 1146.983 951.367 C 1152.232 953.828, 1155.118 954.485, 1162.152 954.822 C 1174.010 955.389, 1180.370 953.343, 1187.770 946.580 L 1193.329 941.500 1192.722 952 C 1192.059 963.476, 1190.367 969.519, 1186.337 974.802 C 1181.059 981.722, 1166.781 985.562, 1155.874 982.994 C 1148.809 981.330, 1144.496 979.084, 1138.904 974.153 L 1134.308 970.101 1130.425 974.076 C 1127.262 977.316, 1126.741 978.371, 1127.613 979.776 C 1129.492 982.806, 1138.321 988.944, 1144 991.169 C 1150.868 993.859, 1167.657 994.831, 1175.925 993.016 C 1187.788 990.413, 1196.858 982.929, 1201.216 972.147 C 1203.454 966.611, 1203.504 965.640, 1203.798 922.750 L 1204.098 879 1198.549 879 L 1193 879 1193 884.829 L 1193 890.657 1188.691 886.529 C 1181.758 879.886, 1176.111 877.695, 1165 877.336 C 1158.586 877.129, 1153.994 877.511, 1150.863 878.512 M 1287.870 878.511 C 1272.021 883.576, 1262 898.485, 1262 917 C 1262 935.997, 1272.280 950.828, 1288.771 955.622 C 1297.249 958.086, 1310.936 957.170, 1317.713 953.685 C 1322.893 951.021, 1330 945.457, 1330 944.066 C 1330 943.666, 1327.941 941.861, 1325.425 940.054 C 1320.852 936.770, 1320.850 936.769, 1319.379 938.869 C 1318.570 940.024, 1315.950 942.117, 1313.556 943.520 C 1300.670 951.072, 1283.230 944.984, 1276.909 930.727 C 1275.078 926.596, 1274.592 923.717, 1274.592 917 C 1274.592 910.283, 1275.078 907.404, 1276.909 903.273 C 1283.230 889.016, 1300.670 882.928, 1313.556 890.480 C 1315.950 891.883, 1318.570 893.976, 1319.379 895.131 C 1320.850 897.231, 1320.852 897.230, 1325.425 893.946 C 1327.941 892.139, 1330 890.334, 1330 889.934 C 1330 888.547, 1322.900 882.983, 1317.713 880.304 C 1313.251 878, 1311.059 877.570, 1302.500 877.322 C 1295.700 877.124, 1291.019 877.505, 1287.870 878.511 M 1593.863 878.512 C 1582.776 882.057, 1573.423 891.724, 1569.859 903.321 C 1566.928 912.855, 1567.529 925.174, 1571.311 933.075 C 1574.942 940.661, 1582.094 947.668, 1589.983 951.367 C 1595.232 953.828, 1598.118 954.485, 1605.152 954.822 C 1617.010 955.389, 1623.370 953.343, 1630.770 946.580 L 1636.329 941.500 1635.722 952 C 1635.059 963.476, 1633.367 969.519, 1629.337 974.802 C 1624.059 981.722, 1609.781 985.562, 1598.874 982.994 C 1591.809 981.330, 1587.496 979.084, 1581.904 974.153 L 1577.308 970.101 1573.425 974.076 C 1570.262 977.316, 1569.741 978.371, 1570.613 979.776 C 1572.492 982.806, 1581.321 988.944, 1587 991.169 C 1593.868 993.859, 1610.657 994.831, 1618.925 993.016 C 1630.788 990.413, 1639.858 982.929, 1644.216 972.147 C 1646.454 966.611, 1646.504 965.640, 1646.798 922.750 L 1647.098 879 1641.549 879 L 1636 879 1636 884.829 L 1636 890.657 1631.691 886.529 C 1624.758 879.886, 1619.111 877.695, 1608 877.336 C 1601.586 877.129, 1596.994 877.511, 1593.863 878.512 M 1692.936 879.750 C 1689.632 881.426, 1686.242 884.190, 1684.257 886.828 L 1681 891.155 1681 885.078 L 1681 879 1675.346 879 L 1669.691 879 1670.342 891.750 C 1670.699 898.763, 1670.994 915.862, 1670.996 929.750 L 1671 955 1676.437 955 L 1681.873 955 1682.187 930.250 L 1682.500 905.500 1685.606 900 C 1690.103 892.037, 1696.084 888.506, 1705.083 888.503 L 1711.831 888.500 1712.821 883.501 C 1713.365 880.752, 1713.602 878.164, 1713.346 877.751 C 1713.091 877.338, 1709.614 877, 1705.620 877 C 1699.680 877, 1697.372 877.500, 1692.936 879.750 M 1740 878.378 C 1734.931 879.848, 1728.725 882.963, 1725.005 885.905 L 1722.509 887.879 1725.497 891.189 C 1727.140 893.010, 1728.754 894.856, 1729.082 895.290 C 1729.411 895.725, 1731.999 894.520, 1734.833 892.612 C 1743.547 886.748, 1756.795 885.433, 1764.115 889.705 C 1767.791 891.851, 1770.491 896.812, 1771.408 903.105 L 1772.079 907.709 1759.289 908.301 C 1741.050 909.145, 1731.503 912.247, 1725.261 919.355 C 1721.147 924.042, 1719.700 928.950, 1720.186 936.578 C 1720.703 944.703, 1724.316 950.257, 1731.482 953.945 C 1735.834 956.185, 1737.683 956.500, 1746.473 956.500 C 1758.020 956.500, 1761.988 955.075, 1768.163 948.713 L 1771.911 944.850 1772.584 949.925 L 1773.258 955 1778.479 955 L 1783.700 955 1783.334 932.750 C 1782.749 897.197, 1782.587 894.964, 1780.264 890.500 C 1777.831 885.823, 1773.906 881.959, 1769 879.410 C 1764.514 877.080, 1746.669 876.445, 1740 878.378 M 1923.500 878.348 C 1912.601 881.951, 1903.973 889.556, 1899.180 899.782 C 1896.760 904.945, 1896.500 906.616, 1896.500 917 C 1896.500 927.400, 1896.758 929.050, 1899.196 934.253 C 1902.967 942.301, 1910.654 950.104, 1918.278 953.626 C 1923.991 956.265, 1925.442 956.500, 1936.021 956.500 C 1946.992 956.500, 1947.856 956.345, 1954.126 953.259 C 1962.055 949.355, 1969.078 942.203, 1972.820 934.218 C 1975.240 929.055, 1975.500 927.384, 1975.500 917 C 1975.500 906.616, 1975.240 904.945, 1972.820 899.782 C 1969.085 891.813, 1962.054 884.644, 1954.163 880.759 C 1948.285 877.866, 1946.588 877.510, 1937.558 877.281 C 1931.228 877.120, 1926.017 877.516, 1923.500 878.348 M 2020.159 879.098 C 2017.222 880.258, 2012.834 883.109, 2010.409 885.432 L 2006 889.657 2006 884.329 L 2006 879 1999.858 879 L 1993.715 879 1994.358 885.147 C 1994.711 888.527, 1995 905.627, 1995 923.147 L 1995 955 2000.500 955 L 2006 955 2006.006 935.250 C 2006.015 905.437, 2008.032 897.569, 2017.267 891.342 C 2028.428 883.816, 2041.521 886.529, 2046.992 897.501 C 2049.424 902.379, 2049.493 903.135, 2049.850 928.750 L 2050.215 955 2055.674 955 L 2061.134 955 2060.784 925.250 C 2060.405 892.980, 2060.253 892.020, 2054.411 885.077 C 2049.892 879.706, 2044.677 877.672, 2034.500 877.309 C 2027.177 877.049, 2024.505 877.382, 2020.159 879.098 M 2239 878.378 C 2233.931 879.848, 2227.725 882.963, 2224.005 885.905 L 2221.509 887.879 2224.497 891.189 C 2226.140 893.010, 2227.754 894.856, 2228.082 895.290 C 2228.411 895.725, 2230.999 894.520, 2233.833 892.612 C 2242.547 886.748, 2255.795 885.433, 2263.115 889.705 C 2266.791 891.851, 2269.491 896.812, 2270.408 903.105 L 2271.079 907.709 2258.289 908.301 C 2240.050 909.145, 2230.503 912.247, 2224.261 919.355 C 2220.147 924.042, 2218.700 928.950, 2219.186 936.578 C 2219.703 944.703, 2223.316 950.257, 2230.482 953.945 C 2234.834 956.185, 2236.683 956.500, 2245.473 956.500 C 2257.020 956.500, 2260.988 955.075, 2267.163 948.713 L 2270.911 944.850 2271.584 949.925 L 2272.258 955 2277.479 955 L 2282.700 955 2282.334 932.750 C 2281.749 897.197, 2281.587 894.964, 2279.264 890.500 C 2276.831 885.823, 2272.906 881.959, 2268 879.410 C 2263.514 877.080, 2245.669 876.445, 2239 878.378 M 2438.159 879.098 C 2435.222 880.258, 2430.834 883.109, 2428.409 885.432 L 2424 889.657 2424 884.329 L 2424 879 2417.858 879 L 2411.715 879 2412.358 885.147 C 2412.711 888.527, 2413 905.627, 2413 923.147 L 2413 955 2418.500 955 L 2424 955 2424.006 935.250 C 2424.015 905.437, 2426.032 897.569, 2435.267 891.342 C 2446.428 883.816, 2459.521 886.529, 2464.992 897.501 C 2467.424 902.379, 2467.493 903.135, 2467.850 928.750 L 2468.215 955 2473.674 955 L 2479.134 955 2478.784 925.250 C 2478.405 892.980, 2478.253 892.020, 2472.411 885.077 C 2467.892 879.706, 2462.677 877.672, 2452.500 877.309 C 2445.177 877.049, 2442.505 877.382, 2438.159 879.098 M 2526.254 878.460 C 2516.136 881.621, 2508.310 888.830, 2503.234 899.664 C 2500.752 904.962, 2500.500 906.561, 2500.500 917 C 2500.500 927.853, 2500.679 928.878, 2503.686 935.225 C 2507.507 943.291, 2513.914 949.829, 2521.783 953.693 C 2527.041 956.275, 2528.422 956.500, 2539 956.500 C 2549.532 956.500, 2550.973 956.268, 2556.121 953.739 C 2562.355 950.678, 2571 943.566, 2571 941.499 C 2571 940.767, 2569.168 938.717, 2566.928 936.943 L 2562.857 933.718 2560.034 937.143 C 2556.315 941.654, 2548.706 945.705, 2542.372 946.545 C 2528.699 948.359, 2515.156 938.010, 2512.471 923.695 L 2511.777 920 2543.014 920 L 2574.251 920 2573.807 911.750 C 2572.981 896.396, 2564.459 883.934, 2551.459 879.071 C 2544.985 876.648, 2532.984 876.358, 2526.254 878.460 M 2616.936 879.750 C 2613.632 881.426, 2610.242 884.190, 2608.257 886.828 L 2605 891.155 2605 885.078 L 2605 879 2599.346 879 L 2593.691 879 2594.342 891.750 C 2594.699 898.763, 2594.994 915.862, 2594.996 929.750 L 2595 955 2600.437 955 L 2605.873 955 2606.187 930.250 L 2606.500 905.500 2609.606 900 C 2614.103 892.037, 2620.084 888.506, 2629.083 888.503 L 2635.831 888.500 2636.821 883.501 C 2637.365 880.752, 2637.602 878.164, 2637.346 877.751 C 2637.091 877.338, 2633.614 877, 2629.620 877 C 2623.680 877, 2621.372 877.500, 2616.936 879.750 M 1229 917 L 1229 955 1234.500 955 L 1240 955 1240 917 L 1240 879 1234.500 879 L 1229 879 1229 917 M 1535 917 L 1535 955 1540.500 955 L 1546 955 1546 917 L 1546 879 1540.500 879 L 1535 879 1535 917 M 1863 917 L 1863 955 1868.500 955 L 1874 955 1874 917 L 1874 879 1868.500 879 L 1863 879 1863 917 M 1067 887.876 C 1056.541 891.318, 1049.540 898.468, 1047.541 907.750 L 1046.841 911 1072.008 911 L 1097.176 911 1096.470 906.750 C 1095.145 898.775, 1091.241 893.211, 1084.572 889.792 C 1080.279 887.591, 1070.955 886.574, 1067 887.876 M 1158.863 887.705 C 1157.412 887.929, 1153.847 889.549, 1150.939 891.306 C 1132.178 902.641, 1132.875 930.938, 1152.176 941.521 C 1159.246 945.397, 1169.897 945.629, 1177.270 942.066 C 1187.792 936.982, 1193.825 925.734, 1192.669 913.359 C 1191.011 895.604, 1176.938 884.925, 1158.863 887.705 M 1601.863 887.705 C 1600.412 887.929, 1596.847 889.549, 1593.939 891.306 C 1575.178 902.641, 1575.875 930.938, 1595.176 941.521 C 1602.246 945.397, 1612.897 945.629, 1620.270 942.066 C 1630.792 936.982, 1636.825 925.734, 1635.669 913.359 C 1634.011 895.604, 1619.938 884.925, 1601.863 887.705 M 1926.969 888.536 C 1920.712 890.465, 1914.649 895.979, 1911.311 902.776 C 1908.899 907.687, 1908.500 909.707, 1908.500 917 C 1908.500 924.293, 1908.899 926.313, 1911.311 931.224 C 1921.597 952.170, 1950.403 952.170, 1960.689 931.224 C 1963.101 926.313, 1963.500 924.293, 1963.500 917 C 1963.500 909.707, 1963.101 907.687, 1960.689 902.776 C 1954.401 889.971, 1940.862 884.253, 1926.969 888.536 M 2532 887.876 C 2521.541 891.318, 2514.540 898.468, 2512.541 907.750 L 2511.841 911 2537.008 911 L 2562.176 911 2561.470 906.750 C 2560.145 898.775, 2556.241 893.211, 2549.572 889.792 C 2545.279 887.591, 2535.955 886.574, 2532 887.876 M 931.680 918.092 C 916.848 919.658, 908.326 925.841, 909.357 934.288 C 910.252 941.619, 914.915 945.612, 923.804 946.661 C 933.339 947.787, 942.420 942.825, 946.116 934.470 C 947.097 932.253, 948.209 927.415, 948.588 923.720 L 949.276 917 944.388 917.133 C 941.700 917.206, 935.981 917.638, 931.680 918.092 M 1754.680 918.092 C 1739.848 919.658, 1731.326 925.841, 1732.357 934.288 C 1733.252 941.619, 1737.915 945.612, 1746.804 946.661 C 1756.339 947.787, 1765.420 942.825, 1769.116 934.470 C 1770.097 932.253, 1771.209 927.415, 1771.588 923.720 L 1772.276 917 1767.388 917.133 C 1764.700 917.206, 1758.981 917.638, 1754.680 918.092 M 2253.680 918.092 C 2238.848 919.658, 2230.326 925.841, 2231.357 934.288 C 2232.252 941.619, 2236.915 945.612, 2245.804 946.661 C 2255.339 947.787, 2264.420 942.825, 2268.116 934.470 C 2269.097 932.253, 2270.209 927.415, 2270.588 923.720 L 2271.276 917 2266.388 917.133 C 2263.700 917.206, 2257.981 917.638, 2253.680 918.092" stroke="none" fill="#59312c" fill-rule="evenodd"/></svg>